<svg xmlns="http://www.w3.org/2000/svg" viewBox="0 0 220 220">
<rect width="220" height="220" fill="#fff"/>
<g fill="#111827">
<rect x="14" y="14" width="54" height="54"/><rect x="24" y="24" width="34" height="34" fill="#fff"/><rect x="34" y="34" width="14" height="14"/>
<rect x="152" y="14" width="54" height="54"/><rect x="162" y="24" width="34" height="34" fill="#fff"/><rect x="172" y="34" width="14" height="14"/>
<rect x="14" y="152" width="54" height="54"/><rect x="24" y="162" width="34" height="34" fill="#fff"/><rect x="34" y="172" width="14" height="14"/>
<rect x="86" y="18" width="12" height="12"/><rect x="110" y="18" width="12" height="12"/><rect x="86" y="42" width="12" height="12"/><rect x="122" y="42" width="12" height="12"/>
<rect x="82" y="82" width="12" height="12"/><rect x="102" y="82" width="12" height="12"/><rect x="126" y="82" width="12" height="12"/><rect x="154" y="82" width="12" height="12"/>
<rect x="82" y="106" width="12" height="12"/><rect x="118" y="106" width="12" height="12"/><rect x="142" y="106" width="12" height="12"/><rect x="178" y="106" width="12" height="12"/>
<rect x="82" y="130" width="12" height="12"/><rect x="102" y="130" width="12" height="12"/><rect x="130" y="130" width="12" height="12"/><rect x="166" y="130" width="12" height="12"/>
<rect x="86" y="158" width="12" height="12"/><rect x="110" y="158" width="12" height="12"/><rect x="134" y="158" width="12" height="12"/><rect x="182" y="158" width="12" height="12"/>
<rect x="86" y="182" width="12" height="12"/><rect x="122" y="182" width="12" height="12"/><rect x="146" y="182" width="12" height="12"/><rect x="170" y="182" width="12" height="12"/>
</g>
</svg>