<svg xmlns="http://www.w3.org/2000/svg" viewBox="0 0 420 420">
<rect width="420" height="420" rx="22" fill="#fff"/>
<g><rect x="0" y="0" width="20" height="20" fill="#12b8ff"/><rect x="20" y="0" width="20" height="20" fill="#12b8ff"/><rect x="40" y="0" width="20" height="20" fill="#12b8ff"/><rect x="60" y="0" width="20" height="20" fill="#12b8ff"/><rect x="80" y="0" width="20" height="20" fill="#12b8ff"/><rect x="100" y="0" width="20" height="20" fill="#12b8ff"/><rect x="120" y="0" width="20" height="20" fill="#12b8ff"/><rect x="200" y="0" width="20" height="20" fill="#12b8ff"/><rect x="220" y="0" width="20" height="20" fill="#12b8ff"/><rect x="260" y="0" width="20" height="20" fill="#12b8ff"/><rect x="280" y="0" width="20" height="20" fill="#12b8ff"/><rect x="300" y="0" width="20" height="20" fill="#12b8ff"/><rect x="320" y="0" width="20" height="20" fill="#12b8ff"/><rect x="340" y="0" width="20" height="20" fill="#12b8ff"/><rect x="360" y="0" width="20" height="20" fill="#12b8ff"/><rect x="380" y="0" width="20" height="20" fill="#12b8ff"/><rect x="400" y="0" width="20" height="20" fill="#12b8ff"/><rect x="0" y="20" width="20" height="20" fill="#12b8ff"/><rect x="20" y="20" width="20" height="20" fill="#12b8ff"/><rect x="40" y="20" width="20" height="20" fill="#12b8ff"/><rect x="60" y="20" width="20" height="20" fill="#12b8ff"/><rect x="80" y="20" width="20" height="20" fill="#12b8ff"/><rect x="100" y="20" width="20" height="20" fill="#12b8ff"/><rect x="120" y="20" width="20" height="20" fill="#12b8ff"/><rect x="180" y="20" width="20" height="20" fill="#12b8ff"/><rect x="200" y="20" width="20" height="20" fill="#12b8ff"/><rect x="240" y="20" width="20" height="20" fill="#12b8ff"/><rect x="280" y="20" width="20" height="20" fill="#12b8ff"/><rect x="300" y="20" width="20" height="20" fill="#12b8ff"/><rect x="320" y="20" width="20" height="20" fill="#12b8ff"/><rect x="340" y="20" width="20" height="20" fill="#12b8ff"/><rect x="360" y="20" width="20" height="20" fill="#12b8ff"/><rect x="380" y="20" width="20" height="20" fill="#12b8ff"/><rect x="400" y="20" width="20" height="20" fill="#12b8ff"/><rect x="0" y="40" width="20" height="20" fill="#12b8ff"/><rect x="20" y="40" width="20" height="20" fill="#12b8ff"/><rect x="40" y="40" width="20" height="20" fill="#12b8ff"/><rect x="60" y="40" width="20" height="20" fill="#12b8ff"/><rect x="80" y="40" width="20" height="20" fill="#12b8ff"/><rect x="100" y="40" width="20" height="20" fill="#12b8ff"/><rect x="120" y="40" width="20" height="20" fill="#12b8ff"/><rect x="160" y="40" width="20" height="20" fill="#12b8ff"/><rect x="180" y="40" width="20" height="20" fill="#12b8ff"/><rect x="220" y="40" width="20" height="20" fill="#12b8ff"/><rect x="280" y="40" width="20" height="20" fill="#12b8ff"/><rect x="300" y="40" width="20" height="20" fill="#12b8ff"/><rect x="320" y="40" width="20" height="20" fill="#12b8ff"/><rect x="340" y="40" width="20" height="20" fill="#12b8ff"/><rect x="360" y="40" width="20" height="20" fill="#12b8ff"/><rect x="380" y="40" width="20" height="20" fill="#12b8ff"/><rect x="400" y="40" width="20" height="20" fill="#12b8ff"/><rect x="0" y="60" width="20" height="20" fill="#12b8ff"/><rect x="20" y="60" width="20" height="20" fill="#12b8ff"/><rect x="40" y="60" width="20" height="20" fill="#12b8ff"/><rect x="60" y="60" width="20" height="20" fill="#12b8ff"/><rect x="80" y="60" width="20" height="20" fill="#12b8ff"/><rect x="100" y="60" width="20" height="20" fill="#12b8ff"/><rect x="120" y="60" width="20" height="20" fill="#12b8ff"/><rect x="140" y="60" width="20" height="20" fill="#12b8ff"/><rect x="160" y="60" width="20" height="20" fill="#12b8ff"/><rect x="200" y="60" width="20" height="20" fill="#12b8ff"/><rect x="280" y="60" width="20" height="20" fill="#12b8ff"/><rect x="300" y="60" width="20" height="20" fill="#12b8ff"/><rect x="320" y="60" width="20" height="20" fill="#12b8ff"/><rect x="340" y="60" width="20" height="20" fill="#12b8ff"/><rect x="360" y="60" width="20" height="20" fill="#12b8ff"/><rect x="380" y="60" width="20" height="20" fill="#12b8ff"/><rect x="400" y="60" width="20" height="20" fill="#12b8ff"/><rect x="0" y="80" width="20" height="20" fill="#12b8ff"/><rect x="20" y="80" width="20" height="20" fill="#12b8ff"/><rect x="40" y="80" width="20" height="20" fill="#12b8ff"/><rect x="60" y="80" width="20" height="20" fill="#12b8ff"/><rect x="80" y="80" width="20" height="20" fill="#12b8ff"/><rect x="100" y="80" width="20" height="20" fill="#12b8ff"/><rect x="120" y="80" width="20" height="20" fill="#12b8ff"/><rect x="140" y="80" width="20" height="20" fill="#12b8ff"/><rect x="180" y="80" width="20" height="20" fill="#12b8ff"/><rect x="260" y="80" width="20" height="20" fill="#12b8ff"/><rect x="280" y="80" width="20" height="20" fill="#12b8ff"/><rect x="300" y="80" width="20" height="20" fill="#12b8ff"/><rect x="320" y="80" width="20" height="20" fill="#12b8ff"/><rect x="340" y="80" width="20" height="20" fill="#12b8ff"/><rect x="360" y="80" width="20" height="20" fill="#12b8ff"/><rect x="380" y="80" width="20" height="20" fill="#12b8ff"/><rect x="400" y="80" width="20" height="20" fill="#12b8ff"/><rect x="0" y="100" width="20" height="20" fill="#12b8ff"/><rect x="20" y="100" width="20" height="20" fill="#12b8ff"/><rect x="40" y="100" width="20" height="20" fill="#12b8ff"/><rect x="60" y="100" width="20" height="20" fill="#12b8ff"/><rect x="80" y="100" width="20" height="20" fill="#12b8ff"/><rect x="100" y="100" width="20" height="20" fill="#12b8ff"/><rect x="120" y="100" width="20" height="20" fill="#12b8ff"/><rect x="160" y="100" width="20" height="20" fill="#12b8ff"/><rect x="240" y="100" width="20" height="20" fill="#12b8ff"/><rect x="260" y="100" width="20" height="20" fill="#12b8ff"/><rect x="280" y="100" width="20" height="20" fill="#12b8ff"/><rect x="300" y="100" width="20" height="20" fill="#12b8ff"/><rect x="320" y="100" width="20" height="20" fill="#12b8ff"/><rect x="340" y="100" width="20" height="20" fill="#12b8ff"/><rect x="360" y="100" width="20" height="20" fill="#12b8ff"/><rect x="380" y="100" width="20" height="20" fill="#12b8ff"/><rect x="400" y="100" width="20" height="20" fill="#12b8ff"/><rect x="0" y="120" width="20" height="20" fill="#12b8ff"/><rect x="20" y="120" width="20" height="20" fill="#12b8ff"/><rect x="40" y="120" width="20" height="20" fill="#12b8ff"/><rect x="60" y="120" width="20" height="20" fill="#12b8ff"/><rect x="80" y="120" width="20" height="20" fill="#12b8ff"/><rect x="100" y="120" width="20" height="20" fill="#12b8ff"/><rect x="120" y="120" width="20" height="20" fill="#12b8ff"/><rect x="140" y="120" width="20" height="20" fill="#12b8ff"/><rect x="220" y="120" width="20" height="20" fill="#12b8ff"/><rect x="240" y="120" width="20" height="20" fill="#12b8ff"/><rect x="280" y="120" width="20" height="20" fill="#12b8ff"/><rect x="300" y="120" width="20" height="20" fill="#12b8ff"/><rect x="320" y="120" width="20" height="20" fill="#12b8ff"/><rect x="340" y="120" width="20" height="20" fill="#12b8ff"/><rect x="360" y="120" width="20" height="20" fill="#12b8ff"/><rect x="380" y="120" width="20" height="20" fill="#12b8ff"/><rect x="400" y="120" width="20" height="20" fill="#12b8ff"/><rect x="60" y="140" width="20" height="20" fill="#12b8ff"/><rect x="80" y="140" width="20" height="20" fill="#12b8ff"/><rect x="120" y="140" width="20" height="20" fill="#12b8ff"/><rect x="200" y="140" width="20" height="20" fill="#12b8ff"/><rect x="220" y="140" width="20" height="20" fill="#12b8ff"/><rect x="260" y="140" width="20" height="20" fill="#12b8ff"/><rect x="340" y="140" width="20" height="20" fill="#12b8ff"/><rect x="360" y="140" width="20" height="20" fill="#12b8ff"/><rect x="400" y="140" width="20" height="20" fill="#12b8ff"/><rect x="40" y="160" width="20" height="20" fill="#12b8ff"/><rect x="60" y="160" width="20" height="20" fill="#12b8ff"/><rect x="100" y="160" width="20" height="20" fill="#12b8ff"/><rect x="180" y="160" width="20" height="20" fill="#12b8ff"/><rect x="200" y="160" width="20" height="20" fill="#12b8ff"/><rect x="240" y="160" width="20" height="20" fill="#12b8ff"/><rect x="320" y="160" width="20" height="20" fill="#12b8ff"/><rect x="340" y="160" width="20" height="20" fill="#12b8ff"/><rect x="380" y="160" width="20" height="20" fill="#12b8ff"/><rect x="20" y="180" width="20" height="20" fill="#12b8ff"/><rect x="40" y="180" width="20" height="20" fill="#12b8ff"/><rect x="80" y="180" width="20" height="20" fill="#12b8ff"/><rect x="160" y="180" width="20" height="20" fill="#12b8ff"/><rect x="180" y="180" width="20" height="20" fill="#12b8ff"/><rect x="220" y="180" width="20" height="20" fill="#12b8ff"/><rect x="300" y="180" width="20" height="20" fill="#12b8ff"/><rect x="320" y="180" width="20" height="20" fill="#12b8ff"/><rect x="360" y="180" width="20" height="20" fill="#12b8ff"/><rect x="0" y="200" width="20" height="20" fill="#12b8ff"/><rect x="20" y="200" width="20" height="20" fill="#12b8ff"/><rect x="60" y="200" width="20" height="20" fill="#12b8ff"/><rect x="140" y="200" width="20" height="20" fill="#12b8ff"/><rect x="160" y="200" width="20" height="20" fill="#12b8ff"/><rect x="200" y="200" width="20" height="20" fill="#12b8ff"/><rect x="280" y="200" width="20" height="20" fill="#12b8ff"/><rect x="300" y="200" width="20" height="20" fill="#12b8ff"/><rect x="340" y="200" width="20" height="20" fill="#12b8ff"/><rect x="0" y="220" width="20" height="20" fill="#12b8ff"/><rect x="40" y="220" width="20" height="20" fill="#12b8ff"/><rect x="120" y="220" width="20" height="20" fill="#12b8ff"/><rect x="140" y="220" width="20" height="20" fill="#12b8ff"/><rect x="180" y="220" width="20" height="20" fill="#12b8ff"/><rect x="260" y="220" width="20" height="20" fill="#12b8ff"/><rect x="280" y="220" width="20" height="20" fill="#12b8ff"/><rect x="320" y="220" width="20" height="20" fill="#12b8ff"/><rect x="400" y="220" width="20" height="20" fill="#12b8ff"/><rect x="20" y="240" width="20" height="20" fill="#12b8ff"/><rect x="100" y="240" width="20" height="20" fill="#12b8ff"/><rect x="120" y="240" width="20" height="20" fill="#12b8ff"/><rect x="160" y="240" width="20" height="20" fill="#12b8ff"/><rect x="240" y="240" width="20" height="20" fill="#12b8ff"/><rect x="260" y="240" width="20" height="20" fill="#12b8ff"/><rect x="300" y="240" width="20" height="20" fill="#12b8ff"/><rect x="380" y="240" width="20" height="20" fill="#12b8ff"/><rect x="400" y="240" width="20" height="20" fill="#12b8ff"/><rect x="0" y="260" width="20" height="20" fill="#12b8ff"/><rect x="80" y="260" width="20" height="20" fill="#12b8ff"/><rect x="100" y="260" width="20" height="20" fill="#12b8ff"/><rect x="140" y="260" width="20" height="20" fill="#12b8ff"/><rect x="220" y="260" width="20" height="20" fill="#12b8ff"/><rect x="240" y="260" width="20" height="20" fill="#12b8ff"/><rect x="280" y="260" width="20" height="20" fill="#12b8ff"/><rect x="360" y="260" width="20" height="20" fill="#12b8ff"/><rect x="380" y="260" width="20" height="20" fill="#12b8ff"/><rect x="0" y="280" width="20" height="20" fill="#12b8ff"/><rect x="20" y="280" width="20" height="20" fill="#12b8ff"/><rect x="40" y="280" width="20" height="20" fill="#12b8ff"/><rect x="60" y="280" width="20" height="20" fill="#12b8ff"/><rect x="80" y="280" width="20" height="20" fill="#12b8ff"/><rect x="100" y="280" width="20" height="20" fill="#12b8ff"/><rect x="120" y="280" width="20" height="20" fill="#12b8ff"/><rect x="200" y="280" width="20" height="20" fill="#12b8ff"/><rect x="220" y="280" width="20" height="20" fill="#12b8ff"/><rect x="260" y="280" width="20" height="20" fill="#12b8ff"/><rect x="340" y="280" width="20" height="20" fill="#12b8ff"/><rect x="360" y="280" width="20" height="20" fill="#12b8ff"/><rect x="400" y="280" width="20" height="20" fill="#12b8ff"/><rect x="0" y="300" width="20" height="20" fill="#12b8ff"/><rect x="20" y="300" width="20" height="20" fill="#12b8ff"/><rect x="40" y="300" width="20" height="20" fill="#12b8ff"/><rect x="60" y="300" width="20" height="20" fill="#12b8ff"/><rect x="80" y="300" width="20" height="20" fill="#12b8ff"/><rect x="100" y="300" width="20" height="20" fill="#12b8ff"/><rect x="120" y="300" width="20" height="20" fill="#12b8ff"/><rect x="180" y="300" width="20" height="20" fill="#12b8ff"/><rect x="200" y="300" width="20" height="20" fill="#12b8ff"/><rect x="240" y="300" width="20" height="20" fill="#12b8ff"/><rect x="320" y="300" width="20" height="20" fill="#12b8ff"/><rect x="340" y="300" width="20" height="20" fill="#12b8ff"/><rect x="380" y="300" width="20" height="20" fill="#12b8ff"/><rect x="0" y="320" width="20" height="20" fill="#12b8ff"/><rect x="20" y="320" width="20" height="20" fill="#12b8ff"/><rect x="40" y="320" width="20" height="20" fill="#12b8ff"/><rect x="60" y="320" width="20" height="20" fill="#12b8ff"/><rect x="80" y="320" width="20" height="20" fill="#12b8ff"/><rect x="100" y="320" width="20" height="20" fill="#12b8ff"/><rect x="120" y="320" width="20" height="20" fill="#12b8ff"/><rect x="160" y="320" width="20" height="20" fill="#12b8ff"/><rect x="180" y="320" width="20" height="20" fill="#12b8ff"/><rect x="220" y="320" width="20" height="20" fill="#12b8ff"/><rect x="300" y="320" width="20" height="20" fill="#12b8ff"/><rect x="320" y="320" width="20" height="20" fill="#12b8ff"/><rect x="360" y="320" width="20" height="20" fill="#12b8ff"/><rect x="0" y="340" width="20" height="20" fill="#12b8ff"/><rect x="20" y="340" width="20" height="20" fill="#12b8ff"/><rect x="40" y="340" width="20" height="20" fill="#12b8ff"/><rect x="60" y="340" width="20" height="20" fill="#12b8ff"/><rect x="80" y="340" width="20" height="20" fill="#12b8ff"/><rect x="100" y="340" width="20" height="20" fill="#12b8ff"/><rect x="120" y="340" width="20" height="20" fill="#12b8ff"/><rect x="140" y="340" width="20" height="20" fill="#12b8ff"/><rect x="160" y="340" width="20" height="20" fill="#12b8ff"/><rect x="200" y="340" width="20" height="20" fill="#12b8ff"/><rect x="280" y="340" width="20" height="20" fill="#12b8ff"/><rect x="300" y="340" width="20" height="20" fill="#12b8ff"/><rect x="340" y="340" width="20" height="20" fill="#12b8ff"/><rect x="0" y="360" width="20" height="20" fill="#12b8ff"/><rect x="20" y="360" width="20" height="20" fill="#12b8ff"/><rect x="40" y="360" width="20" height="20" fill="#12b8ff"/><rect x="60" y="360" width="20" height="20" fill="#12b8ff"/><rect x="80" y="360" width="20" height="20" fill="#12b8ff"/><rect x="100" y="360" width="20" height="20" fill="#12b8ff"/><rect x="120" y="360" width="20" height="20" fill="#12b8ff"/><rect x="140" y="360" width="20" height="20" fill="#12b8ff"/><rect x="180" y="360" width="20" height="20" fill="#12b8ff"/><rect x="260" y="360" width="20" height="20" fill="#12b8ff"/><rect x="280" y="360" width="20" height="20" fill="#12b8ff"/><rect x="320" y="360" width="20" height="20" fill="#12b8ff"/><rect x="400" y="360" width="20" height="20" fill="#12b8ff"/><rect x="0" y="380" width="20" height="20" fill="#12b8ff"/><rect x="20" y="380" width="20" height="20" fill="#12b8ff"/><rect x="40" y="380" width="20" height="20" fill="#12b8ff"/><rect x="60" y="380" width="20" height="20" fill="#12b8ff"/><rect x="80" y="380" width="20" height="20" fill="#12b8ff"/><rect x="100" y="380" width="20" height="20" fill="#12b8ff"/><rect x="120" y="380" width="20" height="20" fill="#12b8ff"/><rect x="160" y="380" width="20" height="20" fill="#12b8ff"/><rect x="240" y="380" width="20" height="20" fill="#12b8ff"/><rect x="260" y="380" width="20" height="20" fill="#12b8ff"/><rect x="300" y="380" width="20" height="20" fill="#12b8ff"/><rect x="380" y="380" width="20" height="20" fill="#12b8ff"/><rect x="400" y="380" width="20" height="20" fill="#12b8ff"/><rect x="0" y="400" width="20" height="20" fill="#12b8ff"/><rect x="20" y="400" width="20" height="20" fill="#12b8ff"/><rect x="40" y="400" width="20" height="20" fill="#12b8ff"/><rect x="60" y="400" width="20" height="20" fill="#12b8ff"/><rect x="80" y="400" width="20" height="20" fill="#12b8ff"/><rect x="100" y="400" width="20" height="20" fill="#12b8ff"/><rect x="120" y="400" width="20" height="20" fill="#12b8ff"/><rect x="140" y="400" width="20" height="20" fill="#12b8ff"/><rect x="220" y="400" width="20" height="20" fill="#12b8ff"/><rect x="240" y="400" width="20" height="20" fill="#12b8ff"/><rect x="280" y="400" width="20" height="20" fill="#12b8ff"/><rect x="360" y="400" width="20" height="20" fill="#12b8ff"/><rect x="380" y="400" width="20" height="20" fill="#12b8ff"/></g>
<g><rect x="0" y="0" width="140" height="140" fill="#12b8ff"/><rect x="20" y="20" width="100" height="100" fill="#fff"/><rect x="40" y="40" width="60" height="60" fill="#12b8ff"/><rect x="280" y="0" width="140" height="140" fill="#12b8ff"/><rect x="300" y="20" width="100" height="100" fill="#fff"/><rect x="320" y="40" width="60" height="60" fill="#12b8ff"/><rect x="0" y="280" width="140" height="140" fill="#12b8ff"/><rect x="20" y="300" width="100" height="100" fill="#fff"/><rect x="40" y="320" width="60" height="60" fill="#12b8ff"/></g>
<circle cx="210.0" cy="210.0" r="48" fill="#20f6d2"/>
<text x="210.0" y="223.0" text-anchor="middle" font-size="42" font-family="Arial" font-weight="900" fill="#062033">S/</text>
</svg>